<?xml version="1.0" standalone="no"?>
<!DOCTYPE svg PUBLIC "-//W3C//DTD SVG 20010904//EN"
 "http://www.w3.org/TR/2001/REC-SVG-20010904/DTD/svg10.dtd">
<svg version="1.0" xmlns="http://www.w3.org/2000/svg"
 width="142.000000pt" height="96.000000pt" viewBox="0 0 142.000000 96.000000"
 preserveAspectRatio="xMidYMid meet">

<g transform="translate(0.000000,96.000000) scale(0.100000,-0.100000)"
fill="#000000" stroke="none">
<path d="M661 920 c-99 -21 -189 -90 -240 -185 -23 -45 -26 -61 -26 -155 0
-84 4 -112 19 -140 l19 -34 33 64 c20 40 33 80 34 104 2 205 242 314 386 175
29 -28 35 -30 98 -27 l66 3 -35 52 c-74 110 -222 170 -354 143z"/>
<path d="M541 450 c-94 -186 -171 -344 -171 -350 0 -6 23 -10 55 -10 l55 0 45
90 c25 50 47 90 49 90 2 0 23 -7 47 -16 25 -8 75 -15 115 -15 102 0 170 28
242 99 l57 57 -73 3 c-63 2 -82 -1 -125 -23 -33 -16 -68 -25 -97 -25 -52 0
-110 17 -110 31 0 12 79 169 85 169 2 0 14 -18 25 -40 20 -40 21 -40 80 -40
l60 0 -81 160 c-45 88 -83 160 -85 160 -1 0 -80 -153 -173 -340z"/>
<path d="M870 195 c0 -3 11 -28 25 -55 l25 -50 55 0 c30 0 55 2 55 5 0 3 -11
28 -25 55 l-25 50 -55 0 c-30 0 -55 -2 -55 -5z"/>
</g>
</svg>
